<svg xmlns="http://www.w3.org/2000/svg" viewBox="0 0 512 512" id="FemaleDoctor"><path fill="#595959" d="M327.4 217.3h-143c-23.7 0-41.4-21.9-36.3-45.1l14.3-66.1h186.8l14.6 66c5 23.2-12.6 45.2-36.4 45.2z" class="color595959 svgShape"></path><path fill="#0048bf" d="M256 507.1c92.6 0 173.5-50.1 217-124.7-43.2-75-124.2-125.5-217-125.5S82.2 307.3 39 382.4C82.5 457 163.4 507.1 256 507.1z" class="color00bfb6 svgShape"></path><path fill="#dee3eb" d="M256 256.8c-27.8 0-54.4 4.5-79.4 12.9 6.2 38.3 39.4 67.6 79.4 67.6s73.2-29.3 79.4-67.6c-25-8.4-51.7-12.9-79.4-12.9z" class="colorebdee5 svgShape"></path><path fill="#ffffff" d="M176.6 269.7c5.2 32.4 29.8 58.3 61.5 65.6 11.6-4.4 19.9-15.6 19.9-28.7v-46.9c0-.9-.1-1.9-.2-2.8H256c-27.7-.1-54.5 4.4-79.4 12.8z" class="colorffffff svgShape"></path><path fill="#fbbc05" d="M256 297.2c-15.7 0-28.4-12.7-28.4-28.4v-39.9h56.9v39.9c-.1 15.7-12.8 28.4-28.5 28.4z" class="colorf29f18 svgShape"></path><path fill="#4285f4" d="M349.2 459c18.1 0 32.9-14.7 32.9-32.9V382h-65.7v44.2c-.1 18.1 14.6 32.8 32.8 32.8z" class="color3dcac3 svgShape"></path><path fill="#4285f4" d="M348.9 459c18 0 32.6-14.6 32.6-32.6V382h-65.2v44.5c0 17.9 14.6 32.5 32.6 32.5z" class="color3dcac3 svgShape"></path><path fill="#34a853" d="M369 382v44.4c0 15.8-11.4 29-26.3 32 2.1.4 4.4.6 6.6.6 18 0 32.8-14.6 32.8-32.6V382H369z" class="color017068 svgShape"></path><path fill="#595959" d="M359 360h10v22h-10z" class="color595959 svgShape"></path><path fill="#dee3eb" d="M317 382h65v16h-65z" class="colorebdee5 svgShape"></path><path fill="#bec1c6" d="M369 382h13v16h-13z" class="colorc6bec3 svgShape"></path><path fill="#fbbc05" d="M324.6 155.1h24.5c13.5 0 24.5-11 24.5-24.5s-11-24.5-24.5-24.5h-24.5v49zm-137.3 0h-24.5c-13.5 0-24.5-11-24.5-24.5s11-24.5 24.5-24.5h24.5v49z" class="colorf29f18 svgShape"></path><path fill="#f4cf62" d="M256 238.8c-44.4 0-80.4-36-80.4-80.4v-55.9c0-44.4 36-80.4 80.4-80.4 44.4 0 80.4 36 80.4 80.4v55.9c0 44.4-36 80.4-80.4 80.4z" class="colorf4bc62 svgShape"></path><path fill="#fbbc05" d="M255.8 22h.1c-4.2 0-8.2.4-12.2 1 38.6 5.9 68.3 39.3 68.3 79.5v55.9c0 40.3-29.6 73.7-68.2 79.6 4 .6 8.1 1 12.2 1h-.2c44.4 0 80.2-36.2 80.2-80.6v-55.9c0-44.4-35.8-80.5-80.2-80.5z" class="colorf29f18 svgShape"></path><path fill="#73130b" d="M344.3 125.7h9.8v9.8h-9.8zM157.9 125.7h9.8v9.8h-9.8z" class="color734b0b svgShape"></path><path fill="#595959" d="M193.2 16.7v71c0 10.2-8.3 18.5-18.5 18.5h-12.4V47.5c.1-17 13.9-30.8 30.9-30.8zm125.2 0v71c0 10.2 8.3 18.5 18.5 18.5h12.4V47.5c-.1-17-13.9-30.8-30.9-30.8z" class="color595959 svgShape"></path><path fill="#34a853" d="M201.4 4.9h108.8c21.5 0 39 17.5 39 39v44.9H162.4V43.9c0-21.5 17.5-39 39-39z" class="color017068 svgShape"></path><path fill="#0048bf" d="M200.7 4.9h77C298.8 4.9 316 22 316 43.2c0 16.9-13.7 30.7-30.7 30.7H162.4V43.2c0-21.2 17.1-38.3 38.3-38.3z" class="color00bfb6 svgShape"></path><path fill="#595959" d="M211 115h25v10h-25zM276 115h25v10h-25z" class="color595959 svgShape"></path><path fill="#4285f4" d="M78.5 330.7c-15.3 15.4-28.6 32.7-39.5 51.7 10.9 18.7 24.2 35.9 39.5 51.2V330.7z" class="color3dcac3 svgShape"></path><path fill="#34a853" d="M382 290.6v136c0 16.7-14 30.4-30.7 30.4h-246c42 31 94.2 50.2 150.7 50.2 92.6 0 173.7-50.2 217.3-124.8-22-38-54.3-69.8-91.3-91.8z" class="color017068 svgShape"></path><path fill="#4285f4" d="M250.6 37.2h-49.4c-6.5 0-11.7-5.2-11.7-11.7 0-6.5 5.2-11.7 11.7-11.7h49.4c6.5 0 11.7 5.2 11.7 11.7-.1 6.5-5.3 11.7-11.7 11.7z" class="color3dcac3 svgShape"></path><path fill="#595959" d="M241 154h-10v-14h-7v-10h12.4c2.7 0 4.6 2.6 4.6 5.4V154zm40 0h-10v-18.6c0-2.7 1.9-5.4 4.6-5.4H288v10h-7v14z" class="color595959 svgShape"></path><path fill="#ea4335" d="M255.9 188.7c-1.3 0-2.5-.5-3.5-1.4l-12.2-12.2 6.9-6.9 8.7 8.7 8.6-8.6 6.9 6.9-12.1 12.1c-.8 1-2 1.4-3.3 1.4zM251 33h10v27h-10z" class="colorf22e24 svgShape"></path><path fill="#ea4335" d="M242 42h27v10h-27z" class="colorf22e24 svgShape"></path></svg>